<svg xmlns="http://www.w3.org/2000/svg" xmlns:xlink="http://www.w3.org/1999/xlink" x="0" y="0" width="1461.2666015625" height="709.2666625976562" style="
        width:1461.2666015625px;
        height:709.2666625976562px;
        background: transparent;
        fill: none;
">
        <svg xmlns="http://www.w3.org/2000/svg"/>
        <g transform="matrix(1,0,0,1,96.3333,11)"> <svg class="main-svg" xmlns="http://www.w3.org/2000/svg" xmlns:xlink="http://www.w3.org/1999/xlink" width="1107" height="690" style="" viewBox="0 0 1107 690"><rect x="0" y="0" width="1107" height="690" style="fill: rgb(255, 255, 255); fill-opacity: 1;"/><defs id="defs-f25651"><g class="clips"><clipPath id="clipf25651xyplot" class="plotclip"><rect width="978" height="571"/></clipPath><clipPath class="axesclip" id="clipf25651x"><rect x="84" y="0" width="978" height="690"/></clipPath><clipPath class="axesclip" id="clipf25651y"><rect x="0" y="69" width="1107" height="571"/></clipPath><clipPath class="axesclip" id="clipf25651xy"><rect x="84" y="69" width="978" height="571"/></clipPath></g><g class="gradients"/></defs><g class="bglayer"/><g class="layer-below"><g class="imagelayer"/><g class="shapelayer"/></g><g class="cartesianlayer"><g class="subplot xy"><g class="layer-subplot"><g class="shapelayer"/><g class="imagelayer"/></g><g class="gridlayer"><g class="x"><path class="xgrid crisp" transform="translate(105.26,0)" d="M0,69v571" style="stroke: rgb(238, 238, 238); stroke-opacity: 1; stroke-width: 1px;"/><path class="xgrid crisp" transform="translate(317.87,0)" d="M0,69v571" style="stroke: rgb(238, 238, 238); stroke-opacity: 1; stroke-width: 1px;"/><path class="xgrid crisp" transform="translate(530.48,0)" d="M0,69v571" style="stroke: rgb(238, 238, 238); stroke-opacity: 1; stroke-width: 1px;"/><path class="xgrid crisp" transform="translate(743.09,0)" d="M0,69v571" style="stroke: rgb(238, 238, 238); stroke-opacity: 1; stroke-width: 1px;"/><path class="xgrid crisp" transform="translate(955.7,0)" d="M0,69v571" style="stroke: rgb(238, 238, 238); stroke-opacity: 1; stroke-width: 1px;"/></g><g class="y"><path class="ygrid crisp" transform="translate(0,533.47)" d="M84,0h978" style="stroke: rgb(238, 238, 238); stroke-opacity: 1; stroke-width: 1px;"/><path class="ygrid crisp" transform="translate(0,426.94)" d="M84,0h978" style="stroke: rgb(238, 238, 238); stroke-opacity: 1; stroke-width: 1px;"/><path class="ygrid crisp" transform="translate(0,320.40999999999997)" d="M84,0h978" style="stroke: rgb(238, 238, 238); stroke-opacity: 1; stroke-width: 1px;"/><path class="ygrid crisp" transform="translate(0,213.88)" d="M84,0h978" style="stroke: rgb(238, 238, 238); stroke-opacity: 1; stroke-width: 1px;"/><path class="ygrid crisp" transform="translate(0,107.35)" d="M84,0h978" style="stroke: rgb(238, 238, 238); stroke-opacity: 1; stroke-width: 1px;"/></g></g><g class="zerolinelayer"/><path class="xlines-below"/><path class="ylines-below"/><g class="overlines-below"/><g class="xaxislayer-below"/><g class="yaxislayer-below"/><g class="overaxes-below"/><g class="plot" transform="translate(84, 69)" clip-path="url('#clipf25651xyplot')"><g class="barlayer mlayer"><g class="trace bars" style="opacity: 1;"><g class="points"><g class="point"><path style="vector-effect: non-scaling-stroke; opacity: 1; stroke-width: 0px; fill: rgb(234, 67, 53); fill-opacity: 1;" d="M2.13,571V568.91H8.5V571Z"/></g><g class="point"><path style="vector-effect: non-scaling-stroke; opacity: 1; stroke-width: 0px; fill: rgb(234, 67, 53); fill-opacity: 1;" d="M44.65,571V568.87H51.03V571Z"/></g><g class="point"><path style="vector-effect: non-scaling-stroke; opacity: 1; stroke-width: 0px; fill: rgb(234, 67, 53); fill-opacity: 1;" d="M87.17,571V568.32H93.55V571Z"/></g><g class="point"><path style="vector-effect: non-scaling-stroke; opacity: 1; stroke-width: 0px; fill: rgb(234, 67, 53); fill-opacity: 1;" d="M129.69,571V568.25H136.07V571Z"/></g><g class="point"><path style="vector-effect: non-scaling-stroke; opacity: 1; stroke-width: 0px; fill: rgb(234, 67, 53); fill-opacity: 1;" d="M172.21,571V568.23H178.59V571Z"/></g><g class="point"><path style="vector-effect: non-scaling-stroke; opacity: 1; stroke-width: 0px; fill: rgb(234, 67, 53); fill-opacity: 1;" d="M214.73,571V566.12H221.11V571Z"/></g><g class="point"><path style="vector-effect: non-scaling-stroke; opacity: 1; stroke-width: 0px; fill: rgb(234, 67, 53); fill-opacity: 1;" d="M257.26,571V565.44H263.63V571Z"/></g><g class="point"><path style="vector-effect: non-scaling-stroke; opacity: 1; stroke-width: 0px; fill: rgb(234, 67, 53); fill-opacity: 1;" d="M299.78,571V562.78H306.16V571Z"/></g><g class="point"><path style="vector-effect: non-scaling-stroke; opacity: 1; stroke-width: 0px; fill: rgb(234, 67, 53); fill-opacity: 1;" d="M342.3,571V555.51H348.68V571Z"/></g><g class="point"><path style="vector-effect: non-scaling-stroke; opacity: 1; stroke-width: 0px; fill: rgb(234, 67, 53); fill-opacity: 1;" d="M384.82,571V554.85H391.2V571Z"/></g><g class="point"><path style="vector-effect: non-scaling-stroke; opacity: 1; stroke-width: 0px; fill: rgb(234, 67, 53); fill-opacity: 1;" d="M427.34,571V553.15H433.72V571Z"/></g><g class="point"><path style="vector-effect: non-scaling-stroke; opacity: 1; stroke-width: 0px; fill: rgb(234, 67, 53); fill-opacity: 1;" d="M469.87,571V549.25H476.24V571Z"/></g><g class="point"><path style="vector-effect: non-scaling-stroke; opacity: 1; stroke-width: 0px; fill: rgb(234, 67, 53); fill-opacity: 1;" d="M512.39,571V548.91H518.77V571Z"/></g><g class="point"><path style="vector-effect: non-scaling-stroke; opacity: 1; stroke-width: 0px; fill: rgb(234, 67, 53); fill-opacity: 1;" d="M554.91,571V540.47H561.29V571Z"/></g><g class="point"><path style="vector-effect: non-scaling-stroke; opacity: 1; stroke-width: 0px; fill: rgb(234, 67, 53); fill-opacity: 1;" d="M597.43,571V534.33H603.81V571Z"/></g><g class="point"><path style="vector-effect: non-scaling-stroke; opacity: 1; stroke-width: 0px; fill: rgb(234, 67, 53); fill-opacity: 1;" d="M639.95,571V516.58H646.33V571Z"/></g><g class="point"><path style="vector-effect: non-scaling-stroke; opacity: 1; stroke-width: 0px; fill: rgb(234, 67, 53); fill-opacity: 1;" d="M682.47,571V487.1H688.85V571Z"/></g><g class="point"><path style="vector-effect: non-scaling-stroke; opacity: 1; stroke-width: 0px; fill: rgb(234, 67, 53); fill-opacity: 1;" d="M725,571V448.06H731.37V571Z"/></g><g class="point"><path style="vector-effect: non-scaling-stroke; opacity: 1; stroke-width: 0px; fill: rgb(234, 67, 53); fill-opacity: 1;" d="M767.52,571V419.69H773.9V571Z"/></g><g class="point"><path style="vector-effect: non-scaling-stroke; opacity: 1; stroke-width: 0px; fill: rgb(234, 67, 53); fill-opacity: 1;" d="M810.04,571V365.21H816.42V571Z"/></g><g class="point"><path style="vector-effect: non-scaling-stroke; opacity: 1; stroke-width: 0px; fill: rgb(234, 67, 53); fill-opacity: 1;" d="M852.56,571V237.48H858.94V571Z"/></g><g class="point"><path style="vector-effect: non-scaling-stroke; opacity: 1; stroke-width: 0px; fill: rgb(234, 67, 53); fill-opacity: 1;" d="M895.08,571V92.21H901.46V571Z"/></g><g class="point"><path style="vector-effect: non-scaling-stroke; opacity: 1; stroke-width: 0px; fill: rgb(234, 67, 53); fill-opacity: 1;" d="M937.6,571V1.75H943.98V571Z"/></g></g></g><g class="trace bars" style="opacity: 1;"><g class="points"><g class="point"><path style="vector-effect: non-scaling-stroke; opacity: 1; stroke-width: 0px; fill: rgb(66, 133, 244); fill-opacity: 1;" d="M8.5,571V567.51H14.88V571Z"/></g><g class="point"><path style="vector-effect: non-scaling-stroke; opacity: 1; stroke-width: 0px; fill: rgb(66, 133, 244); fill-opacity: 1;" d="M51.03,571V567.14H57.4V571Z"/></g><g class="point"><path style="vector-effect: non-scaling-stroke; opacity: 1; stroke-width: 0px; fill: rgb(66, 133, 244); fill-opacity: 1;" d="M93.55,571V566.53H99.93V571Z"/></g><g class="point"><path style="vector-effect: non-scaling-stroke; opacity: 1; stroke-width: 0px; fill: rgb(66, 133, 244); fill-opacity: 1;" d="M136.07,571V566.38H142.45V571Z"/></g><g class="point"><path style="vector-effect: non-scaling-stroke; opacity: 1; stroke-width: 0px; fill: rgb(66, 133, 244); fill-opacity: 1;" d="M178.59,571V566.18H184.97V571Z"/></g><g class="point"><path style="vector-effect: non-scaling-stroke; opacity: 1; stroke-width: 0px; fill: rgb(66, 133, 244); fill-opacity: 1;" d="M221.11,571V564.86H227.49V571Z"/></g><g class="point"><path style="vector-effect: non-scaling-stroke; opacity: 1; stroke-width: 0px; fill: rgb(66, 133, 244); fill-opacity: 1;" d="M263.63,571V564.65H270.01V571Z"/></g><g class="point"><path style="vector-effect: non-scaling-stroke; opacity: 1; stroke-width: 0px; fill: rgb(66, 133, 244); fill-opacity: 1;" d="M306.16,571V564.12H312.53V571Z"/></g><g class="point"><path style="vector-effect: non-scaling-stroke; opacity: 1; stroke-width: 0px; fill: rgb(66, 133, 244); fill-opacity: 1;" d="M348.68,571V563.52H355.06V571Z"/></g><g class="point"><path style="vector-effect: non-scaling-stroke; opacity: 1; stroke-width: 0px; fill: rgb(66, 133, 244); fill-opacity: 1;" d="M391.2,571V563.2H397.58V571Z"/></g><g class="point"><path style="vector-effect: non-scaling-stroke; opacity: 1; stroke-width: 0px; fill: rgb(66, 133, 244); fill-opacity: 1;" d="M433.72,571V558.45H440.1V571Z"/></g><g class="point"><path style="vector-effect: non-scaling-stroke; opacity: 1; stroke-width: 0px; fill: rgb(66, 133, 244); fill-opacity: 1;" d="M476.24,571V557.56H482.62V571Z"/></g><g class="point"><path style="vector-effect: non-scaling-stroke; opacity: 1; stroke-width: 0px; fill: rgb(66, 133, 244); fill-opacity: 1;" d="M518.77,571V554.98H525.14V571Z"/></g><g class="point"><path style="vector-effect: non-scaling-stroke; opacity: 1; stroke-width: 0px; fill: rgb(66, 133, 244); fill-opacity: 1;" d="M561.29,571V543.09H567.67V571Z"/></g><g class="point"><path style="vector-effect: non-scaling-stroke; opacity: 1; stroke-width: 0px; fill: rgb(66, 133, 244); fill-opacity: 1;" d="M603.81,571V532.52H610.19V571Z"/></g><g class="point"><path style="vector-effect: non-scaling-stroke; opacity: 1; stroke-width: 0px; fill: rgb(66, 133, 244); fill-opacity: 1;" d="M646.33,571V512.77H652.71V571Z"/></g><g class="point"><path style="vector-effect: non-scaling-stroke; opacity: 1; stroke-width: 0px; fill: rgb(66, 133, 244); fill-opacity: 1;" d="M688.85,571V505.93H695.23V571Z"/></g><g class="point"><path style="vector-effect: non-scaling-stroke; opacity: 1; stroke-width: 0px; fill: rgb(66, 133, 244); fill-opacity: 1;" d="M731.37,571V497.05H737.75V571Z"/></g><g class="point"><path style="vector-effect: non-scaling-stroke; opacity: 1; stroke-width: 0px; fill: rgb(66, 133, 244); fill-opacity: 1;" d="M773.9,571V463.28H780.27V571Z"/></g><g class="point"><path style="vector-effect: non-scaling-stroke; opacity: 1; stroke-width: 0px; fill: rgb(66, 133, 244); fill-opacity: 1;" d="M816.42,571V456.29H822.8V571Z"/></g><g class="point"><path style="vector-effect: non-scaling-stroke; opacity: 1; stroke-width: 0px; fill: rgb(66, 133, 244); fill-opacity: 1;" d="M858.94,571V359.69H865.32V571Z"/></g><g class="point"><path style="vector-effect: non-scaling-stroke; opacity: 1; stroke-width: 0px; fill: rgb(66, 133, 244); fill-opacity: 1;" d="M901.46,571V300.33H907.84V571Z"/></g><g class="point"><path style="vector-effect: non-scaling-stroke; opacity: 1; stroke-width: 0px; fill: rgb(66, 133, 244); fill-opacity: 1;" d="M943.98,571V254.99H950.36V571Z"/></g></g></g><g class="trace bars" style="opacity: 1;"><g class="points"><g class="point"><path style="vector-effect: non-scaling-stroke; opacity: 1; stroke-width: 0px; fill: rgb(251, 188, 4); fill-opacity: 1;" d="M14.88,571V570.94H21.26V571Z"/></g><g class="point"><path style="vector-effect: non-scaling-stroke; opacity: 1; stroke-width: 0px; fill: rgb(251, 188, 4); fill-opacity: 1;" d="M57.4,571V570.89H63.78V571Z"/></g><g class="point"><path style="vector-effect: non-scaling-stroke; opacity: 1; stroke-width: 0px; fill: rgb(251, 188, 4); fill-opacity: 1;" d="M99.93,571V570.89H106.3V571Z"/></g><g class="point"><path style="vector-effect: non-scaling-stroke; opacity: 1; stroke-width: 0px; fill: rgb(251, 188, 4); fill-opacity: 1;" d="M142.45,571V570.87H148.83V571Z"/></g><g class="point"><path style="vector-effect: non-scaling-stroke; opacity: 1; stroke-width: 0px; fill: rgb(251, 188, 4); fill-opacity: 1;" d="M184.97,571V570.83H191.35V571Z"/></g><g class="point"><path style="vector-effect: non-scaling-stroke; opacity: 1; stroke-width: 0px; fill: rgb(251, 188, 4); fill-opacity: 1;" d="M227.49,571V570.77H233.87V571Z"/></g><g class="point"><path style="vector-effect: non-scaling-stroke; opacity: 1; stroke-width: 0px; fill: rgb(251, 188, 4); fill-opacity: 1;" d="M270.01,571V570.57H276.39V571Z"/></g><g class="point"><path style="vector-effect: non-scaling-stroke; opacity: 1; stroke-width: 0px; fill: rgb(251, 188, 4); fill-opacity: 1;" d="M312.53,571V570.51H318.91V571Z"/></g><g class="point"><path style="vector-effect: non-scaling-stroke; opacity: 1; stroke-width: 0px; fill: rgb(251, 188, 4); fill-opacity: 1;" d="M355.06,571V570.3H361.43V571Z"/></g><g class="point"><path style="vector-effect: non-scaling-stroke; opacity: 1; stroke-width: 0px; fill: rgb(251, 188, 4); fill-opacity: 1;" d="M397.58,571V570.17H403.96V571Z"/></g><g class="point"><path style="vector-effect: non-scaling-stroke; opacity: 1; stroke-width: 0px; fill: rgb(251, 188, 4); fill-opacity: 1;" d="M440.1,571V570.04H446.48V571Z"/></g><g class="point"><path style="vector-effect: non-scaling-stroke; opacity: 1; stroke-width: 0px; fill: rgb(251, 188, 4); fill-opacity: 1;" d="M482.62,571V569.96H489V571Z"/></g><g class="point"><path style="vector-effect: non-scaling-stroke; opacity: 1; stroke-width: 0px; fill: rgb(251, 188, 4); fill-opacity: 1;" d="M525.14,571V569.74H531.52V571Z"/></g><g class="point"><path style="vector-effect: non-scaling-stroke; opacity: 1; stroke-width: 0px; fill: rgb(251, 188, 4); fill-opacity: 1;" d="M567.67,571V568.81H574.04V571Z"/></g><g class="point"><path style="vector-effect: non-scaling-stroke; opacity: 1; stroke-width: 0px; fill: rgb(251, 188, 4); fill-opacity: 1;" d="M610.19,571V566.7H616.57V571Z"/></g><g class="point"><path style="vector-effect: non-scaling-stroke; opacity: 1; stroke-width: 0px; fill: rgb(251, 188, 4); fill-opacity: 1;" d="M652.71,571V561.8H659.09V571Z"/></g><g class="point"><path style="vector-effect: non-scaling-stroke; opacity: 1; stroke-width: 0px; fill: rgb(251, 188, 4); fill-opacity: 1;" d="M695.23,571V561.6H701.61V571Z"/></g><g class="point"><path style="vector-effect: non-scaling-stroke; opacity: 1; stroke-width: 0px; fill: rgb(251, 188, 4); fill-opacity: 1;" d="M737.75,571V560.52H744.13V571Z"/></g><g class="point"><path style="vector-effect: non-scaling-stroke; opacity: 1; stroke-width: 0px; fill: rgb(251, 188, 4); fill-opacity: 1;" d="M780.27,571V559.69H786.65V571Z"/></g><g class="point"><path style="vector-effect: non-scaling-stroke; opacity: 1; stroke-width: 0px; fill: rgb(251, 188, 4); fill-opacity: 1;" d="M822.8,571V550.23H829.17V571Z"/></g><g class="point"><path style="vector-effect: non-scaling-stroke; opacity: 1; stroke-width: 0px; fill: rgb(251, 188, 4); fill-opacity: 1;" d="M865.32,571V548.67H871.7V571Z"/></g><g class="point"><path style="vector-effect: non-scaling-stroke; opacity: 1; stroke-width: 0px; fill: rgb(251, 188, 4); fill-opacity: 1;" d="M907.84,571V545.37H914.22V571Z"/></g><g class="point"><path style="vector-effect: non-scaling-stroke; opacity: 1; stroke-width: 0px; fill: rgb(251, 188, 4); fill-opacity: 1;" d="M950.36,571V539.66H956.74V571Z"/></g></g></g><g class="trace bars" style="opacity: 1;"><g class="points"><g class="point"><path style="vector-effect: non-scaling-stroke; opacity: 1; stroke-width: 0px; fill: rgb(52, 168, 83); fill-opacity: 1;" d="M21.26,571V569.04H27.64V571Z"/></g><g class="point"><path style="vector-effect: non-scaling-stroke; opacity: 1; stroke-width: 0px; fill: rgb(52, 168, 83); fill-opacity: 1;" d="M63.78,571V569.02H70.16V571Z"/></g><g class="point"><path style="vector-effect: non-scaling-stroke; opacity: 1; stroke-width: 0px; fill: rgb(52, 168, 83); fill-opacity: 1;" d="M106.3,571V568.27H112.68V571Z"/></g><g class="point"><path style="vector-effect: non-scaling-stroke; opacity: 1; stroke-width: 0px; fill: rgb(52, 168, 83); fill-opacity: 1;" d="M148.83,571V568.27H155.2V571Z"/></g><g class="point"><path style="vector-effect: non-scaling-stroke; opacity: 1; stroke-width: 0px; fill: rgb(52, 168, 83); fill-opacity: 1;" d="M191.35,571V567.21H197.73V571Z"/></g><g class="point"><path style="vector-effect: non-scaling-stroke; opacity: 1; stroke-width: 0px; fill: rgb(52, 168, 83); fill-opacity: 1;" d="M233.87,571V567.19H240.25V571Z"/></g><g class="point"><path style="vector-effect: non-scaling-stroke; opacity: 1; stroke-width: 0px; fill: rgb(52, 168, 83); fill-opacity: 1;" d="M276.39,571V566.21H282.77V571Z"/></g><g class="point"><path style="vector-effect: non-scaling-stroke; opacity: 1; stroke-width: 0px; fill: rgb(52, 168, 83); fill-opacity: 1;" d="M318.91,571V566.18H325.29V571Z"/></g><g class="point"><path style="vector-effect: non-scaling-stroke; opacity: 1; stroke-width: 0px; fill: rgb(52, 168, 83); fill-opacity: 1;" d="M361.43,571V564.52H367.81V571Z"/></g><g class="point"><path style="vector-effect: non-scaling-stroke; opacity: 1; stroke-width: 0px; fill: rgb(52, 168, 83); fill-opacity: 1;" d="M403.96,571V563.61H410.33V571Z"/></g><g class="point"><path style="vector-effect: non-scaling-stroke; opacity: 1; stroke-width: 0px; fill: rgb(52, 168, 83); fill-opacity: 1;" d="M446.48,571V562.56H452.86V571Z"/></g><g class="point"><path style="vector-effect: non-scaling-stroke; opacity: 1; stroke-width: 0px; fill: rgb(52, 168, 83); fill-opacity: 1;" d="M489,571V559.96H495.38V571Z"/></g><g class="point"><path style="vector-effect: non-scaling-stroke; opacity: 1; stroke-width: 0px; fill: rgb(52, 168, 83); fill-opacity: 1;" d="M531.52,571V557.96H537.9V571Z"/></g><g class="point"><path style="vector-effect: non-scaling-stroke; opacity: 1; stroke-width: 0px; fill: rgb(52, 168, 83); fill-opacity: 1;" d="M574.04,571V555.32H580.42V571Z"/></g><g class="point"><path style="vector-effect: non-scaling-stroke; opacity: 1; stroke-width: 0px; fill: rgb(52, 168, 83); fill-opacity: 1;" d="M616.57,571V552.7H622.94V571Z"/></g><g class="point"><path style="vector-effect: non-scaling-stroke; opacity: 1; stroke-width: 0px; fill: rgb(52, 168, 83); fill-opacity: 1;" d="M659.09,571V539.04H665.47V571Z"/></g><g class="point"><path style="vector-effect: non-scaling-stroke; opacity: 1; stroke-width: 0px; fill: rgb(52, 168, 83); fill-opacity: 1;" d="M701.61,571V529.73H707.99V571Z"/></g><g class="point"><path style="vector-effect: non-scaling-stroke; opacity: 1; stroke-width: 0px; fill: rgb(52, 168, 83); fill-opacity: 1;" d="M744.13,571V529.65H750.51V571Z"/></g><g class="point"><path style="vector-effect: non-scaling-stroke; opacity: 1; stroke-width: 0px; fill: rgb(52, 168, 83); fill-opacity: 1;" d="M786.65,571V518.57H793.03V571Z"/></g><g class="point"><path style="vector-effect: non-scaling-stroke; opacity: 1; stroke-width: 0px; fill: rgb(52, 168, 83); fill-opacity: 1;" d="M829.17,571V510.28H835.55V571Z"/></g><g class="point"><path style="vector-effect: non-scaling-stroke; opacity: 1; stroke-width: 0px; fill: rgb(52, 168, 83); fill-opacity: 1;" d="M871.7,571V470.07H878.07V571Z"/></g><g class="point"><path style="vector-effect: non-scaling-stroke; opacity: 1; stroke-width: 0px; fill: rgb(52, 168, 83); fill-opacity: 1;" d="M914.22,571V450.05H920.6V571Z"/></g><g class="point"><path style="vector-effect: non-scaling-stroke; opacity: 1; stroke-width: 0px; fill: rgb(52, 168, 83); fill-opacity: 1;" d="M956.74,571V443.55H963.12V571Z"/></g></g></g><g class="trace bars" style="opacity: 1;"><g class="points"><g class="point"><path style="vector-effect: non-scaling-stroke; opacity: 1; stroke-width: 0px; fill: rgb(137, 51, 233); fill-opacity: 1;" d="M27.64,571V569.57H34.02V571Z"/></g><g class="point"><path style="vector-effect: non-scaling-stroke; opacity: 1; stroke-width: 0px; fill: rgb(137, 51, 233); fill-opacity: 1;" d="M70.16,571V569.27H76.54V571Z"/></g><g class="point"><path style="vector-effect: non-scaling-stroke; opacity: 1; stroke-width: 0px; fill: rgb(137, 51, 233); fill-opacity: 1;" d="M112.68,571V568.89H119.06V571Z"/></g><g class="point"><path style="vector-effect: non-scaling-stroke; opacity: 1; stroke-width: 0px; fill: rgb(137, 51, 233); fill-opacity: 1;" d="M155.2,571V568.7H161.58V571Z"/></g><g class="point"><path style="vector-effect: non-scaling-stroke; opacity: 1; stroke-width: 0px; fill: rgb(137, 51, 233); fill-opacity: 1;" d="M197.73,571V567.89H204.1V571Z"/></g><g class="point"><path style="vector-effect: non-scaling-stroke; opacity: 1; stroke-width: 0px; fill: rgb(137, 51, 233); fill-opacity: 1;" d="M240.25,571V567.74H246.63V571Z"/></g><g class="point"><path style="vector-effect: non-scaling-stroke; opacity: 1; stroke-width: 0px; fill: rgb(137, 51, 233); fill-opacity: 1;" d="M282.77,571V566.85H289.15V571Z"/></g><g class="point"><path style="vector-effect: non-scaling-stroke; opacity: 1; stroke-width: 0px; fill: rgb(137, 51, 233); fill-opacity: 1;" d="M325.29,571V564.97H331.67V571Z"/></g><g class="point"><path style="vector-effect: non-scaling-stroke; opacity: 1; stroke-width: 0px; fill: rgb(137, 51, 233); fill-opacity: 1;" d="M367.81,571V564.46H374.19V571Z"/></g><g class="point"><path style="vector-effect: non-scaling-stroke; opacity: 1; stroke-width: 0px; fill: rgb(137, 51, 233); fill-opacity: 1;" d="M410.33,571V563.8H416.71V571Z"/></g><g class="point"><path style="vector-effect: non-scaling-stroke; opacity: 1; stroke-width: 0px; fill: rgb(137, 51, 233); fill-opacity: 1;" d="M452.86,571V561.45H459.23V571Z"/></g><g class="point"><path style="vector-effect: non-scaling-stroke; opacity: 1; stroke-width: 0px; fill: rgb(137, 51, 233); fill-opacity: 1;" d="M495.38,571V556.96H501.76V571Z"/></g><g class="point"><path style="vector-effect: non-scaling-stroke; opacity: 1; stroke-width: 0px; fill: rgb(137, 51, 233); fill-opacity: 1;" d="M537.9,571V552.76H544.28V571Z"/></g><g class="point"><path style="vector-effect: non-scaling-stroke; opacity: 1; stroke-width: 0px; fill: rgb(137, 51, 233); fill-opacity: 1;" d="M580.42,571V551.19H586.8V571Z"/></g><g class="point"><path style="vector-effect: non-scaling-stroke; opacity: 1; stroke-width: 0px; fill: rgb(137, 51, 233); fill-opacity: 1;" d="M622.94,571V544.28H629.32V571Z"/></g><g class="point"><path style="vector-effect: non-scaling-stroke; opacity: 1; stroke-width: 0px; fill: rgb(137, 51, 233); fill-opacity: 1;" d="M665.47,571V537.57H671.84V571Z"/></g><g class="point"><path style="vector-effect: non-scaling-stroke; opacity: 1; stroke-width: 0px; fill: rgb(137, 51, 233); fill-opacity: 1;" d="M707.99,571V512.32H714.37V571Z"/></g><g class="point"><path style="vector-effect: non-scaling-stroke; opacity: 1; stroke-width: 0px; fill: rgb(137, 51, 233); fill-opacity: 1;" d="M750.51,571V512.15H756.89V571Z"/></g><g class="point"><path style="vector-effect: non-scaling-stroke; opacity: 1; stroke-width: 0px; fill: rgb(137, 51, 233); fill-opacity: 1;" d="M793.03,571V511.05H799.41V571Z"/></g><g class="point"><path style="vector-effect: non-scaling-stroke; opacity: 1; stroke-width: 0px; fill: rgb(137, 51, 233); fill-opacity: 1;" d="M835.55,571V502.2H841.93V571Z"/></g><g class="point"><path style="vector-effect: non-scaling-stroke; opacity: 1; stroke-width: 0px; fill: rgb(137, 51, 233); fill-opacity: 1;" d="M878.07,571V431.04H884.45V571Z"/></g><g class="point"><path style="vector-effect: non-scaling-stroke; opacity: 1; stroke-width: 0px; fill: rgb(137, 51, 233); fill-opacity: 1;" d="M920.6,571V430.76H926.97V571Z"/></g><g class="point"><path style="vector-effect: non-scaling-stroke; opacity: 1; stroke-width: 0px; fill: rgb(137, 51, 233); fill-opacity: 1;" d="M963.12,571V414.49H969.5V571Z"/></g></g></g><g class="trace bars" style="opacity: 1;"><g class="points"><g class="point"><path style="vector-effect: non-scaling-stroke; opacity: 1; stroke-width: 0px; fill: rgb(255, 109, 1); fill-opacity: 1;" d="M34.02,571V566.74H40.4V571Z"/></g><g class="point"><path style="vector-effect: non-scaling-stroke; opacity: 1; stroke-width: 0px; fill: rgb(255, 109, 1); fill-opacity: 1;" d="M76.54,571V566.23H82.92V571Z"/></g><g class="point"><path style="vector-effect: non-scaling-stroke; opacity: 1; stroke-width: 0px; fill: rgb(255, 109, 1); fill-opacity: 1;" d="M119.06,571V564.8H125.44V571Z"/></g><g class="point"><path style="vector-effect: non-scaling-stroke; opacity: 1; stroke-width: 0px; fill: rgb(255, 109, 1); fill-opacity: 1;" d="M161.58,571V564.67H167.96V571Z"/></g><g class="point"><path style="vector-effect: non-scaling-stroke; opacity: 1; stroke-width: 0px; fill: rgb(255, 109, 1); fill-opacity: 1;" d="M204.1,571V564.54H210.48V571Z"/></g><g class="point"><path style="vector-effect: non-scaling-stroke; opacity: 1; stroke-width: 0px; fill: rgb(255, 109, 1); fill-opacity: 1;" d="M246.63,571V564.4H253V571Z"/></g><g class="point"><path style="vector-effect: non-scaling-stroke; opacity: 1; stroke-width: 0px; fill: rgb(255, 109, 1); fill-opacity: 1;" d="M289.15,571V563.73H295.53V571Z"/></g><g class="point"><path style="vector-effect: non-scaling-stroke; opacity: 1; stroke-width: 0px; fill: rgb(255, 109, 1); fill-opacity: 1;" d="M331.67,571V560.52H338.05V571Z"/></g><g class="point"><path style="vector-effect: non-scaling-stroke; opacity: 1; stroke-width: 0px; fill: rgb(255, 109, 1); fill-opacity: 1;" d="M374.19,571V555.92H380.57V571Z"/></g><g class="point"><path style="vector-effect: non-scaling-stroke; opacity: 1; stroke-width: 0px; fill: rgb(255, 109, 1); fill-opacity: 1;" d="M416.71,571V543.66H423.09V571Z"/></g><g class="point"><path style="vector-effect: non-scaling-stroke; opacity: 1; stroke-width: 0px; fill: rgb(255, 109, 1); fill-opacity: 1;" d="M459.23,571V540.49H465.61V571Z"/></g><g class="point"><path style="vector-effect: non-scaling-stroke; opacity: 1; stroke-width: 0px; fill: rgb(255, 109, 1); fill-opacity: 1;" d="M501.76,571V538.55H508.13V571Z"/></g><g class="point"><path style="vector-effect: non-scaling-stroke; opacity: 1; stroke-width: 0px; fill: rgb(255, 109, 1); fill-opacity: 1;" d="M544.28,571V535.59H550.66V571Z"/></g><g class="point"><path style="vector-effect: non-scaling-stroke; opacity: 1; stroke-width: 0px; fill: rgb(255, 109, 1); fill-opacity: 1;" d="M586.8,571V531.95H593.18V571Z"/></g><g class="point"><path style="vector-effect: non-scaling-stroke; opacity: 1; stroke-width: 0px; fill: rgb(255, 109, 1); fill-opacity: 1;" d="M629.32,571V526.58H635.7V571Z"/></g><g class="point"><path style="vector-effect: non-scaling-stroke; opacity: 1; stroke-width: 0px; fill: rgb(255, 109, 1); fill-opacity: 1;" d="M671.84,571V518.76H678.22V571Z"/></g><g class="point"><path style="vector-effect: non-scaling-stroke; opacity: 1; stroke-width: 0px; fill: rgb(255, 109, 1); fill-opacity: 1;" d="M714.37,571V498.01H720.74V571Z"/></g><g class="point"><path style="vector-effect: non-scaling-stroke; opacity: 1; stroke-width: 0px; fill: rgb(255, 109, 1); fill-opacity: 1;" d="M756.89,571V479.96H763.27V571Z"/></g><g class="point"><path style="vector-effect: non-scaling-stroke; opacity: 1; stroke-width: 0px; fill: rgb(255, 109, 1); fill-opacity: 1;" d="M799.41,571V474.93H805.79V571Z"/></g><g class="point"><path style="vector-effect: non-scaling-stroke; opacity: 1; stroke-width: 0px; fill: rgb(255, 109, 1); fill-opacity: 1;" d="M841.93,571V433.21H848.31V571Z"/></g><g class="point"><path style="vector-effect: non-scaling-stroke; opacity: 1; stroke-width: 0px; fill: rgb(255, 109, 1); fill-opacity: 1;" d="M884.45,571V340.92H890.83V571Z"/></g><g class="point"><path style="vector-effect: non-scaling-stroke; opacity: 1; stroke-width: 0px; fill: rgb(255, 109, 1); fill-opacity: 1;" d="M926.97,571V240.74H933.35V571Z"/></g><g class="point"><path style="vector-effect: non-scaling-stroke; opacity: 1; stroke-width: 0px; fill: rgb(255, 109, 1); fill-opacity: 1;" d="M969.5,571V88.48H975.87V571Z"/></g></g></g></g></g><g class="overplot"/><path class="xlines-above crisp" style="fill: none; stroke-width: 1px; stroke: rgb(166, 166, 166); stroke-opacity: 1;" d="M83,640.5H1063M83,68.5H1063"/><path class="ylines-above crisp" style="fill: none; stroke-width: 1px; stroke: rgb(166, 166, 166); stroke-opacity: 1;" d="M83.5,69V640M1062.5,69V640"/><g class="overlines-above"/><g class="xaxislayer-above"><path class="xtick ticks crisp" style="stroke: rgb(68, 68, 68); stroke-opacity: 1; stroke-width: 1px;" d="M0,641v0M0,68v0" transform="translate(105.26,0)"/><path class="xtick ticks crisp" style="stroke: rgb(68, 68, 68); stroke-opacity: 1; stroke-width: 1px;" d="M0,641v0M0,68v0" transform="translate(317.87,0)"/><path class="xtick ticks crisp" style="stroke: rgb(68, 68, 68); stroke-opacity: 1; stroke-width: 1px;" d="M0,641v0M0,68v0" transform="translate(530.48,0)"/><path class="xtick ticks crisp" style="stroke: rgb(68, 68, 68); stroke-opacity: 1; stroke-width: 1px;" d="M0,641v0M0,68v0" transform="translate(743.09,0)"/><path class="xtick ticks crisp" style="stroke: rgb(68, 68, 68); stroke-opacity: 1; stroke-width: 1px;" d="M0,641v0M0,68v0" transform="translate(955.7,0)"/><g class="xtick"><text text-anchor="middle" x="0" y="663.8" style="font-family: sans-serif; font-size: 19px; fill: rgb(68, 68, 68); fill-opacity: 1; white-space: pre;" transform="translate(105.26,0)">2000</text></g><g class="xtick"><text text-anchor="middle" x="0" y="663.8" style="font-family: sans-serif; font-size: 19px; fill: rgb(68, 68, 68); fill-opacity: 1; white-space: pre;" transform="translate(317.87,0)">2005</text></g><g class="xtick"><text text-anchor="middle" x="0" y="663.8" style="font-family: sans-serif; font-size: 19px; fill: rgb(68, 68, 68); fill-opacity: 1; white-space: pre;" transform="translate(530.48,0)">2010</text></g><g class="xtick"><text text-anchor="middle" x="0" y="663.8" style="font-family: sans-serif; font-size: 19px; fill: rgb(68, 68, 68); fill-opacity: 1; white-space: pre;" transform="translate(743.09,0)">2015</text></g><g class="xtick"><text text-anchor="middle" x="0" y="663.8" style="font-family: sans-serif; font-size: 19px; fill: rgb(68, 68, 68); fill-opacity: 1; white-space: pre;" transform="translate(955.7,0)">2020</text></g></g><g class="yaxislayer-above"><g class="ytick"><text text-anchor="end" x="79.6" y="5.949999999999999" style="font-family: sans-serif; font-size: 17px; fill: rgb(68, 68, 68); fill-opacity: 1; white-space: pre;" transform="translate(0,640)">0</text></g><g class="ytick"><text text-anchor="end" x="79.6" y="5.949999999999999" style="font-family: sans-serif; font-size: 17px; fill: rgb(68, 68, 68); fill-opacity: 1; white-space: pre;" transform="translate(0,533.47)">5k</text></g><g class="ytick"><text text-anchor="end" x="79.6" y="5.949999999999999" style="font-family: sans-serif; font-size: 17px; fill: rgb(68, 68, 68); fill-opacity: 1; white-space: pre;" transform="translate(0,426.94)">10k</text></g><g class="ytick"><text text-anchor="end" x="79.6" y="5.949999999999999" style="font-family: sans-serif; font-size: 17px; fill: rgb(68, 68, 68); fill-opacity: 1; white-space: pre;" transform="translate(0,320.40999999999997)">15k</text></g><g class="ytick"><text text-anchor="end" x="79.6" y="5.949999999999999" style="font-family: sans-serif; font-size: 17px; fill: rgb(68, 68, 68); fill-opacity: 1; white-space: pre;" transform="translate(0,213.88)">20k</text></g><g class="ytick"><text text-anchor="end" x="79.6" y="5.949999999999999" style="font-family: sans-serif; font-size: 17px; fill: rgb(68, 68, 68); fill-opacity: 1; white-space: pre;" transform="translate(0,107.35)">25k</text></g></g><g class="overaxes-above"/></g></g><g class="polarlayer"/><g class="ternarylayer"/><g class="geolayer"/><g class="funnelarealayer"/><g class="pielayer"/><g class="treemaplayer"/><g class="sunburstlayer"/><g class="glimages"/><defs id="topdefs-f25651"><g class="clips"/><clipPath id="legendf25651"><rect width="567" height="42" x="0" y="0"/></clipPath></defs><g class="layer-above"><g class="imagelayer"/><g class="shapelayer"/></g><g class="infolayer"><g class="legend" pointer-events="all" transform="translate(289.5, 11.899999999999949)"><rect class="bg" shape-rendering="crispEdges" style="stroke: rgb(68, 68, 68); stroke-opacity: 1; fill: rgb(255, 255, 255); fill-opacity: 1; stroke-width: 0px;" width="567" height="42" x="0" y="0"/><g class="scrollbox" transform="translate(0, 0)" clip-path="url('#legendf25651')"><g class="groups"><g class="traces" style="opacity: 1;" transform="translate(0, 20.8)"><text class="legendtext user-select-none" text-anchor="start" style="font-family: sans-serif; font-size: 22px; fill: rgb(68, 68, 68); fill-opacity: 1; white-space: pre;" x="40" y="8.58">CHE</text><g class="layers" style="opacity: 1;"><g class="legendfill"/><g class="legendlines"/><g class="legendsymbols"><g class="legendpoints"><path class="legendundefined" d="M6,6H-6V-6H6Z" transform="translate(20,0)" style="stroke-width: 0px; fill: rgb(234, 67, 53); fill-opacity: 1;"/></g></g></g><rect class="legendtoggle" style="cursor: pointer; fill: rgb(0, 0, 0); fill-opacity: 0;" pointer-events="all" x="0" y="-15.8" width="91.06666564941406" height="31.6"/></g><g class="traces" style="opacity: 1;" transform="translate(93.56666564941406, 20.8)"><text class="legendtext user-select-none" text-anchor="start" style="font-family: sans-serif; font-size: 22px; fill: rgb(68, 68, 68); fill-opacity: 1; white-space: pre;" x="40" y="8.58">HKE</text><g class="layers" style="opacity: 1;"><g class="legendfill"/><g class="legendlines"/><g class="legendsymbols"><g class="legendpoints"><path class="legendundefined" d="M6,6H-6V-6H6Z" transform="translate(20,0)" style="stroke-width: 0px; fill: rgb(66, 133, 244); fill-opacity: 1;"/></g></g></g><rect class="legendtoggle" style="cursor: pointer; fill: rgb(0, 0, 0); fill-opacity: 0;" pointer-events="all" x="0" y="-15.8" width="89.85000610351562" height="31.6"/></g><g class="traces" style="opacity: 1;" transform="translate(185.9166717529297, 20.8)"><text class="legendtext user-select-none" text-anchor="start" style="font-family: sans-serif; font-size: 22px; fill: rgb(68, 68, 68); fill-opacity: 1; white-space: pre;" x="40" y="8.58">MCE</text><g class="layers" style="opacity: 1;"><g class="legendfill"/><g class="legendlines"/><g class="legendsymbols"><g class="legendpoints"><path class="legendundefined" d="M6,6H-6V-6H6Z" transform="translate(20,0)" style="stroke-width: 0px; fill: rgb(251, 188, 4); fill-opacity: 1;"/></g></g></g><rect class="legendtoggle" style="cursor: pointer; fill: rgb(0, 0, 0); fill-opacity: 0;" pointer-events="all" x="0" y="-15.8" width="93.51666259765625" height="31.6"/></g><g class="traces" style="opacity: 1;" transform="translate(281.93333435058594, 20.8)"><text class="legendtext user-select-none" text-anchor="start" style="font-family: sans-serif; font-size: 22px; fill: rgb(68, 68, 68); fill-opacity: 1; white-space: pre;" x="40" y="8.58">TWE</text><g class="layers" style="opacity: 1;"><g class="legendfill"/><g class="legendlines"/><g class="legendsymbols"><g class="legendpoints"><path class="legendundefined" d="M6,6H-6V-6H6Z" transform="translate(20,0)" style="stroke-width: 0px; fill: rgb(52, 168, 83); fill-opacity: 1;"/></g></g></g><rect class="legendtoggle" style="cursor: pointer; fill: rgb(0, 0, 0); fill-opacity: 0;" pointer-events="all" x="0" y="-15.8" width="93.5" height="31.6"/></g><g class="traces" style="opacity: 1;" transform="translate(377.93333435058594, 20.8)"><text class="legendtext user-select-none" text-anchor="start" style="font-family: sans-serif; font-size: 22px; fill: rgb(68, 68, 68); fill-opacity: 1; white-space: pre;" x="40" y="8.58">MYE</text><g class="layers" style="opacity: 1;"><g class="legendfill"/><g class="legendlines"/><g class="legendsymbols"><g class="legendpoints"><path class="legendundefined" d="M6,6H-6V-6H6Z" transform="translate(20,0)" style="stroke-width: 0px; fill: rgb(137, 51, 233); fill-opacity: 1;"/></g></g></g><rect class="legendtoggle" style="cursor: pointer; fill: rgb(0, 0, 0); fill-opacity: 0;" pointer-events="all" x="0" y="-15.8" width="92.30000305175781" height="31.6"/></g><g class="traces" style="opacity: 1;" transform="translate(472.73333740234375, 20.8)"><text class="legendtext user-select-none" text-anchor="start" style="font-family: sans-serif; font-size: 22px; fill: rgb(68, 68, 68); fill-opacity: 1; white-space: pre;" x="40" y="8.58">SGE</text><g class="layers" style="opacity: 1;"><g class="legendfill"/><g class="legendlines"/><g class="legendsymbols"><g class="legendpoints"><path class="legendundefined" d="M6,6H-6V-6H6Z" transform="translate(20,0)" style="stroke-width: 0px; fill: rgb(255, 109, 1); fill-opacity: 1;"/></g></g></g><rect class="legendtoggle" style="cursor: pointer; fill: rgb(0, 0, 0); fill-opacity: 0;" pointer-events="all" x="0" y="-15.8" width="91.08334350585938" height="31.6"/></g></g></g><rect class="scrollbar" rx="20" ry="3" width="0" height="0" style="fill: rgb(128, 139, 164); fill-opacity: 1;" x="0" y="0"/></g><g class="g-gtitle"><text class="gtitle" style="font-family: TOBESTRIPPEDOpen SansTOBESTRIPPED, verdana, arial, sans-serif; font-size: 20px; fill: rgb(68, 68, 68); opacity: 1; font-weight: normal; white-space: pre;" x="597.7800000000001" y="34.5" text-anchor="middle" dy="0em"><tspan class="line" dy="0em" x="597.7800000000001" y="34.5"></tspan><tspan class="line" dy="1.3em" x="597.7800000000001" y="34.5"></tspan></text></g><g class="g-xtitle" transform="translate(0,-32.65031433105469)"><text class="xtitle" style="font-family: sans-serif; font-size: 22px; fill: rgb(68, 68, 68); opacity: 1; font-weight: normal; white-space: pre;" x="573" y="716" text-anchor="middle">Year</text></g><g class="g-ytitle"><text class="ytitle" transform="rotate(-90,30,354.5)" style="font-family: sans-serif; font-size: 22px; fill: rgb(68, 68, 68); opacity: 1; font-weight: normal; white-space: pre;" x="30" y="354.5" text-anchor="middle">Number of URLs</text></g></g></svg></g>
        <svg xmlns="http://www.w3.org/2000/svg" class="role-diagram-draw-area"><g class="shapes-region" style="stroke: black; fill: none;"><g class="composite-shape"><rect class="real" rx="0" ry="0" x="96.33333333333346" y="10.99999999999983" width="1106.6666666666665" height="689.6666666666672" style="stroke: none;"/></g><g/></g><g/><g/><g/></svg>
        <svg xmlns="http://www.w3.org/2000/svg" xmlns:xlink="http://www.w3.org/1999/xlink" width="1460" height="708" style="width:1460px;height:708px;font-family:Asana-Math, Asana;background:transparent;"></svg>
</svg>
